<?xml version="1.0" encoding="utf-8"?>
<!-- Generator: Adobe Illustrator 20.1.0, SVG Export Plug-In . SVG Version: 6.00 Build 0)  -->
<svg version="1.1" id="Layer_1" xmlns="http://www.w3.org/2000/svg" xmlns:xlink="http://www.w3.org/1999/xlink" x="0px" y="0px"
	 viewBox="0 0 100 100" style="enable-background:new 0 0 100 100;" xml:space="preserve">
<style type="text/css">
	.st0{fill:none;}
	.st1{fill:#27AAE1;}
	.st2{fill:#2B3990;}
</style>
<path class="st0" d="M62.7,56.4l-10,10c1.3-0.2,2.5-0.8,3.5-1.8l26.6-26.6c1.2-1.2,1.9-2.8,1.9-4.5c0-1.7-0.7-3.3-1.9-4.5l-2.3-2.3
	c-1.2-1.2-2.8-1.9-4.5-1.9s-3.3,0.7-4.5,1.9l-6,6c1.9,3,2.9,6.5,2.9,10.1C68.4,47.9,66.4,52.8,62.7,56.4z"/>
<path class="st0" d="M55.5,42.7c0-0.1,0-0.1,0-0.2L44.9,53.2C43.7,54.4,43,56,43,57.8c0,0.1,0,0.1,0,0.2l10.6-10.6
	C54.8,46.1,55.5,44.5,55.5,42.7z"/>
<path class="st0" d="M35.8,44.1l10-10c-1.3,0.2-2.5,0.8-3.5,1.8L15.6,62.6c-2.5,2.5-2.5,6.6,0,9.1l2.3,2.3c1.2,1.2,2.8,1.9,4.5,1.9
	s3.3-0.7,4.5-1.9l6-6c-1.9-3-2.9-6.5-2.9-10.1C30.1,52.6,32.1,47.7,35.8,44.1z"/>
<path class="st1" d="M99,34.9c0-5.2-2-10-5.6-13.6L91.1,19c-3.6-3.6-8.5-5.6-13.6-5.6c-5.2,0-10,2-13.6,5.6l-6.2,6.2L47.1,35.7
	l-10,10c-3.6,3.6-5.6,8.5-5.6,13.6c0,3.6,1,7.1,2.9,10.1l10-10c0-0.1,0-0.1,0-0.2c0-1.7,0.7-3.3,1.9-4.5l10.6-10.6l10-10l6-6
	c1.2-1.2,2.8-1.9,4.5-1.9s3.3,0.7,4.5,1.9l2.3,2.3c1.2,1.2,1.9,2.8,1.9,4.5c0,1.7-0.7,3.3-1.9,4.5L57.6,66.1c-1,0.9-2.2,1.6-3.5,1.8
	L43.7,78.3c2.8,1.6,6.1,2.5,9.4,2.5c5.2,0,10-2,13.6-5.6l26.6-26.6h0C97,44.9,99,40,99,34.9z"/>
<path class="st2" d="M66.4,34.5L43,57.9l-10,10l-6,6c-1.2,1.2-2.8,1.9-4.5,1.9s-3.3-0.7-4.5-1.9l-2.3-2.3c-2.5-2.5-2.5-6.6,0-9.1
	l26.6-26.6c0.9-0.9,2.2-1.6,3.5-1.8l10.5-10.5c-2.8-1.6-6.1-2.5-9.4-2.5c-5.2,0-10,2-13.6,5.6L6.5,53.5C2.9,57.1,0.9,62,0.9,67.1
	s2,10,5.6,13.6L8.8,83c3.6,3.6,8.5,5.6,13.6,5.6s10-2,13.6-5.6l6.2-6.2l10.5-10.5l10-10c3.6-3.6,5.6-8.5,5.6-13.6
	C68.4,39.1,68.3,37.5,66.4,34.5z"/>
</svg>
