<?xml version="1.0" encoding="utf-8"?>
<!-- Generator: Adobe Illustrator 20.1.0, SVG Export Plug-In . SVG Version: 6.00 Build 0)  -->
<svg version="1.1" id="Layer_1" xmlns="http://www.w3.org/2000/svg" xmlns:xlink="http://www.w3.org/1999/xlink" x="0px" y="0px"
	 viewBox="0 0 92 91" style="enable-background:new 0 0 92 91;" xml:space="preserve">
<style type="text/css">
	.st0{fill:#E25E58;}
	.st1{fill:#00B5AD;}
	.st2{fill:#FFDD00;}
</style>
<g>
	<path class="st0" d="M28.3,84.8c5.1-0.6,6.3-5.3,11.4-7.4c-2.7,0.6-3.9,1.3-5.6,2.9C32.4,81.9,30.8,84.3,28.3,84.8 M19.1,79.3
		c4.4,0.5,6.6-0.7,10.3-2.5c1.6-0.8,3.3-1.6,5.8-1.6C28,74.4,25.9,79.3,19.1,79.3 M12.3,69.8c7.7,4,12.3-0.8,19.7,2.1
		c-2.5-1.6-4.8-1.6-7.3-1.5C20,70.7,17.3,71.2,12.3,69.8 M20.4,54.6c-3.1-1-6.6-1.8-10.9-5.6C15.7,56.7,22,52.9,29,60.7
		c-2.7-3.7-5.2-5-8.1-5.9L20.4,54.6z M10.6,60.3c1.8,1.6,4,2.4,6.2,2.9c4.8,1.1,7.3,0.7,12,3.4C22.9,61.3,17.3,64,10.6,60.3
		 M36.6,88.1c4.4-2.2,2.2-4.8,6.8-8.6C38.4,82.2,40,85.8,36.6,88.1 M46.3,82.9c-0.8,1.2-1.7,0.5-1.8,3.5
		C44.5,85.4,45.6,84.1,46.3,82.9 M51.2,87.3L51.2,87.3c-0.5,1-1.2,1.8-2.2,2.4c0.4-1,0.2-2.3,0.1-3.5c-0.2,2.9-1.6,4.6-4.6,4.8
		c2.2-2.4,1.9-4.8,3-6.2c-2.3,1.8-1.9,7-7.9,6c1.8-1,2.7-4.2,3.3-6.2c0.4-1.3,0.8-2.5,1.8-4c-2.7,2.7-2.8,6.4-5,8.5
		c-1.6,1.5-5.1,2.3-10.3,0.2c5.6-1.8,5.7-3.4,8.5-7.5c0.7-1.1,1.7-2.2,3.3-3c-2.9,0.8-4.1,3.3-5.7,5.2c-0.7,0.8-1.3,1.6-2.1,2.1
		l-0.7,0.5c-0.2,0.2-0.6,0.4-0.8,0.5c-2.3,1.1-5,1.1-7.5,0.4l-0.2-0.1c-1.9-0.6-3.7-1.7-5.2-3.1c10.2,0.1,9.8-6.5,17.5-7.6
		C33.2,76,30.1,79,26.8,81l-0.1,0.1c-0.6,0.4-1.3,0.7-1.9,0.8c-0.6,0.2-1.3,0.4-1.9,0.5l-0.5,0.1c-2.7,0.4-5.3-0.1-7.6-1.3l-0.4-0.1
		c-2.5-1.5-4.6-3.7-5.6-6.5c2.9,1.2,6,1.8,10.2,1.2h0.4c1.2-0.2,2.5-0.6,3.7-0.8l0.2-0.1c3-0.8,6.2-1.7,8.8-1
		c-2.8-1.6-6-0.5-9.3,0.1c-2.8,0.6-5.3,0.8-7.4,0.7C8.6,74.2,3.8,70.2,2.2,61.4c2.7,3,5.9,5,10.6,5.7c4.6,0.7,10.9-0.5,14.7,1.9
		c-1.6-1.7-4.6-2.2-8-2.5l-0.8-0.1c-1.8-0.1-3.6-0.2-5.3-0.5l-1.8-0.4c-0.6-0.1-1.3-0.4-1.8-0.6c-1.7-0.6-3-1.5-4.2-2.3
		c-3.9-3-6-7.9-5.4-14.4c2.4,4.2,5.6,6.5,9.4,8.2c4.7,1.9,11.7,2.3,15.4,4.8c-3.1-3.1-8.3-3.5-12.9-5.3c-3.5-1.5-6-3.1-7.9-5.1
		l-0.6-0.7c-0.1-0.2-0.4-0.4-0.5-0.6c-3.5-5.2-3.1-13.7,1-19.9c-0.1,11.4,8,16.3,16.6,20.1C26.3,52.2,63.6,58.6,51.2,87.3"/>
	<path class="st1" d="M20.9,11.3c-2.1,4.6,1.5,8.1,0.5,13.5c0.8-2.5,0.8-4,0.4-6.3C21.3,16.4,20,13.7,20.9,11.3 M30.4,6.4
		c-2.7,3.5-2.8,6-3,10.2c-0.1,1.8-0.4,3.6-1.6,5.7C29.8,16.5,26.9,12.1,30.4,6.4 M41.9,5.4c-7.4,4.7-5.7,11-12,15.8
		c2.7-1.5,3.9-3.4,5-5.4C37.2,11.6,38.2,8.9,41.9,5.4 M50.9,20.2c2.5-2.2,5.1-4.8,10.4-6.5c-9.8,1.3-9.8,8.7-19.9,10.8
		c4.6-0.4,6.9-1.9,9.2-3.9L50.9,20.2z M51,8.8c-2.3,0.7-4.1,2.2-5.7,3.9c-3.4,3.6-4.4,5.8-9.1,8.5C43.7,18.9,44.3,12.5,51,8.8
		 M13.9,16.8c-0.4,4.8,3,4.4,3.9,10.2C18,21.5,14,20.9,13.9,16.8 M13.3,27.8c-0.6-1.3,0.5-1.7-2.1-3.4C12.1,25,12.6,26.6,13.3,27.8
		 M7,29.8L7,29.8c-0.6-1-1-2.1-1-3c0.7,0.8,1.8,1.3,2.9,1.9C6.6,27,5.8,25,7.1,22.3c0.8,3.1,3.1,4.1,3.7,5.8
		c-0.4-2.9-5.1-5.3-1.1-9.9c-0.1,2.1,2.3,4.5,3.6,5.9c1,1.1,1.7,1.9,2.4,3.6c-1-3.7-4.1-5.7-4.7-8.6c-0.5-2.2,0.6-5.6,5.1-8.8
		C15,16,16.1,17,18.2,21.5c0.6,1.2,1.1,2.5,1,4.4c0.7-2.9-0.7-5.2-1.6-7.5c-0.4-1-0.6-1.9-0.7-2.8l-0.1-0.8c0-0.4,0-0.7,0-1.1
		c0.2-2.5,1.6-4.8,3.5-6.5L20.4,7c1.6-1.3,3.4-2.3,5.3-2.8c-5.3,8.6,0.6,11.7-2.4,19c2.3-2.7,1.3-6.9,1.3-10.6v-0.2
		c0-0.7,0.1-1.5,0.2-2.1c0.1-0.7,0.4-1.3,0.6-1.9l0.2-0.5c1.1-2.4,2.9-4.5,5.1-5.8l0.2-0.1c2.5-1.5,5.6-2.1,8.5-1.5
		c-2.5,1.8-4.6,4.4-6.2,8.1l-0.1,0.4c-0.5,1.1-0.8,2.4-1.2,3.7l-0.1,0.2c-0.8,3-1.7,6.2-3.6,8.1c2.8-1.6,3.5-4.8,4.6-8
		c1-2.8,1.9-5,3.3-6.8c4-5.7,9.8-7.7,18.3-4.6c-4,0.7-7.3,2.5-10.4,6.3c-3,3.5-5.2,9.7-9.2,11.7c2.3-0.5,4.2-2.8,6.3-5.6l0.5-0.6
		c1.1-1.5,2.1-2.9,3.1-4.2l1.2-1.5c0.5-0.5,1-1,1.5-1.3c1.3-1.1,2.8-1.9,4.1-2.4c4.6-1.8,9.8-1.1,15.1,2.8
		c-4.8-0.1-8.5,1.5-11.8,3.9c-4.1,3-8.1,8.8-12.1,10.8c4.4-1.1,7.4-5.3,11.1-8.3c3-2.3,5.8-3.6,8.3-4.1l1-0.1c0.2,0,0.5,0,0.7-0.1
		C70,8.4,77.2,13,80.4,19.9c-9.7-6.2-18.1-1.7-25.8,3.7C49.8,26.6,25.2,55.1,7,29.8"/>
	<path class="st2" d="M87.6,42.4c-3-4.1-7.7-2.8-12.1-6.3c1.8,2.1,3,2.8,5.3,3.4C83,40.1,85.9,40.3,87.6,42.4 M87.4,53
		c-1.8-4-3.9-5.4-7.4-7.6c-1.6-1-3-2.1-4.2-4.2C78.7,47.7,84,47.2,87.4,53 M82.6,63.6c-0.5-8.7-6.9-10.3-8-18.1c0,3,1.1,5,2.3,7
		C79.4,56.5,81.2,58.6,82.6,63.6 M65.3,64.2c0.7,3.3,1.7,6.8,0.6,12.2c3.6-9.2-2.8-12.8,0.4-22.6c-1.9,4.1-1.7,7-1.1,9.9L65.3,64.2z
		 M75.1,69.8c0.5-2.3,0.1-4.6-0.6-6.8c-1.5-4.7-3-6.6-2.9-12.1C69.9,58.6,75.1,62.2,75.1,69.8 M86.3,33.6c-4-2.7-5.3,0.5-10.8-1.6
		C80.3,34.9,82.7,31.8,86.3,33.6 M77.1,27.6c1.5,0.1,1.2,1.2,4-0.1C80.1,28,78.4,27.6,77.1,27.6 M78.3,21.1L78.3,21.1
		c1.1,0,2.2,0.1,3.1,0.7c-1.1,0.2-2.1,1-3.1,1.7c2.7-1.2,4.7-1,6.5,1.6c-3.1-0.7-5.1,0.7-6.9,0.5c2.7,1.1,7.1-1.8,9.2,3.9
		c-1.8-1.1-5-0.2-7,0.2c-1.5,0.4-2.5,0.6-4.4,0.4c3.6,1,7-0.7,9.8,0.1c2.1,0.6,4.5,3.3,5.2,8.8c-4.4-3.9-5.8-3.3-10.8-3.6
		c-1.3-0.1-2.8-0.4-4.2-1.3c2.2,2.1,4.8,1.9,7.4,2.3c1.1,0.1,1.9,0.4,2.8,0.7l1,0.4c0.4,0.1,0.6,0.4,0.8,0.5c2.1,1.5,3.4,3.7,4,6.3
		v0.2c0.4,1.9,0.4,4.1-0.1,6c-5-8.8-10.5-5.2-15.4-11.5c1.1,3.3,5.4,4.5,8.7,6.4l0.1,0.1c0.6,0.4,1.2,0.7,1.7,1.2
		c0.5,0.5,1,1,1.5,1.5l0.4,0.4c1.6,2.2,2.5,4.7,2.7,7.3v0.4c0,2.9-0.8,5.9-2.9,8.1c-0.4-3.1-1.5-6.2-4-9.3l-0.2-0.2
		c-0.7-1-1.7-1.9-2.7-2.9l-0.1-0.1c-2.2-2.2-4.5-4.6-5.3-7.1c0,3.3,2.5,5.4,4.7,8c1.9,2.2,3.4,4.1,4.4,6c3,6.3,1.9,12.3-5,18.1
		c1.3-3.7,1.3-7.5-0.4-12.1c-1.6-4.4-5.9-9.2-5.7-13.8c-0.7,2.2,0.4,5.1,1.8,8.2l0.4,0.7c0.7,1.6,1.6,3.3,2.2,4.8l0.6,1.8
		c0.2,0.6,0.4,1.3,0.5,1.9c0.2,1.7,0.2,3.4,0.1,4.8c-0.7,4.8-3.9,9.1-9.8,11.8c2.4-4.2,2.9-8.1,2.4-12.2c-0.6-5.1-3.7-11.4-3.4-15.8
		c-1.2,4.4,1.1,8.9,1.8,13.8c0.5,3.7,0.4,6.8-0.5,9.3L69.7,81c-0.1,0.2-0.2,0.5-0.4,0.7c-2.7,5.6-10.3,9.6-17.8,9.1
		c10-5.4,10.4-14.9,9.3-24.3C60.3,60.2,47.4,24.6,78.3,21.1"/>
</g>
</svg>
