<?xml version="1.0" encoding="utf-8"?>
<!-- Generator: Adobe Illustrator 20.1.0, SVG Export Plug-In . SVG Version: 6.00 Build 0)  -->
<svg version="1.1" id="Layer_1" xmlns="http://www.w3.org/2000/svg" xmlns:xlink="http://www.w3.org/1999/xlink" x="0px" y="0px"
	 viewBox="0 0 100 100" style="enable-background:new 0 0 100 100;" xml:space="preserve">
<style type="text/css">
	.st0{fill:#3D7CC0;}
	.st1{fill:#FFFFFF;}
</style>
<path class="st0" d="M50,100L50,100C22.4,100,0,77.6,0,50v0C0,22.4,22.4,0,50,0h0c27.6,0,50,22.4,50,50v0C100,77.6,77.6,100,50,100z
	"/>
<g>
	<path class="st1" d="M58,57.5c0,2.9-0.5,5.4-1.5,7.7c-1,2.3-2.3,4.3-4,5.9c-1.7,1.6-3.7,2.8-6,3.7c-2.3,0.9-4.8,1.3-7.6,1.3
		c-2.7,0-5.3-0.4-7.6-1.3C29,74,27,72.7,25.3,71.1c-1.7-1.6-3.1-3.6-4-5.9c-1-2.3-1.4-4.9-1.4-7.7v-30h8.4v29.8
		c0,1.2,0.2,2.4,0.5,3.7c0.4,1.3,0.9,2.4,1.8,3.5c0.8,1.1,1.9,2,3.3,2.6c1.4,0.7,3,1,5.1,1c2,0,3.7-0.3,5.1-1
		c1.4-0.7,2.5-1.6,3.3-2.6c0.8-1.1,1.4-2.2,1.8-3.5c0.4-1.3,0.5-2.5,0.5-3.7V27.5H58V57.5z"/>
	<path class="st1" d="M68.2,27.5h8.4V75h-8.4V27.5z"/>
</g>
</svg>
