<?xml version="1.0" encoding="utf-8"?>
<!-- Generator: Adobe Illustrator 20.1.0, SVG Export Plug-In . SVG Version: 6.00 Build 0)  -->
<svg version="1.1" id="Layer_1" xmlns="http://www.w3.org/2000/svg" xmlns:xlink="http://www.w3.org/1999/xlink" x="0px" y="0px"
	 viewBox="0 0 64.6 68.1" style="enable-background:new 0 0 64.6 68.1;" xml:space="preserve">
<style type="text/css">
	.st0{fill:#5D5D5D;}
	.st1{fill:url(#SVGID_1_);}
	.st2{fill:url(#SVGID_2_);}
</style>
<title>logo</title>
<path class="st0" d="M40.5,25.3c0,0,0.1,2.1-0.6,2.9c-0.8,0.8-2.3,0.6-2.9,0.6c-0.6,0-2.1,0-2.1,0s0,10.3,0,10.8
	c0,0.6,0.1,2.4-0.6,3.2c-0.8,0.8-3.2,0.6-3.2,0.6V28.8h-5.6c0,0,0-2.3,0.6-2.9c0.6-0.6,2.1-0.6,2.9-0.6
	C29.9,25.3,40.5,25.3,40.5,25.3z"/>
<path class="st0" d="M19.9,43.5c0,0,2.4,0.2,3.2-0.6c0.8-0.8,0.6-2.6,0.6-3.2c0-0.6,0-14.4,0-14.4s-2.4-0.1-3.2,0.6
	c-0.8,0.8-0.6,2.5-0.6,3.1C19.9,29.7,19.9,43.5,19.9,43.5z"/>
<g>
	
		<radialGradient id="SVGID_1_" cx="49.4308" cy="22.7331" r="58.8757" gradientTransform="matrix(1 0 0 -1 0 70)" gradientUnits="userSpaceOnUse">
		<stop  offset="8.182920e-03" style="stop-color:#ABE1FA"/>
		<stop  offset="1.407325e-02" style="stop-color:#9CDCF9"/>
		<stop  offset="3.913981e-02" style="stop-color:#5CCCF5"/>
		<stop  offset="6.391656e-02" style="stop-color:#00BFF3"/>
		<stop  offset="8.793743e-02" style="stop-color:#00B7F1"/>
		<stop  offset="0.111" style="stop-color:#00B2F0"/>
		<stop  offset="0.1326" style="stop-color:#00AFEF"/>
		<stop  offset="0.1514" style="stop-color:#00AEEF"/>
		<stop  offset="0.7185" style="stop-color:#007DB4"/>
		<stop  offset="1" style="stop-color:#44C8F5"/>
	</radialGradient>
	<path class="st1" d="M63.5,25.3C61.5,18,57.2,12,51.7,7.8l0,0c-0.1-0.1-0.2-0.1-0.3-0.1c-0.1,0.1-0.3,0.2-0.2,0.4
		c0,0.1,0.1,0.1,0.1,0.2c5.3,4.1,9.3,9.9,11.1,16.8c1.3,4.8,1.4,9.6,0.6,14.1l0,0c-0.1,0.3-0.1,0.6-0.2,0.9c0,0.1,0,0.1,0,0.1
		c-2.4,10.3-10.7,19.1-22,22.1c-14.2,3.8-28.7-2.9-34.5-15.3H2.8c6.4,14.1,22.2,22,37.7,17.8c3.3-0.9,6.2-2.2,8.9-3.9
		c0.2-0.1,0.3-0.2,0.4-0.3c0.1-0.1,0.2-0.1,0.3-0.2c0.3-0.2,0.6-0.4,0.9-0.6l0,0c2.8-2,5.2-4.4,7.2-7.1c0.1-0.1,0.1-0.1,0.1-0.2
		c0.1-0.2,0.3-0.4,0.4-0.6c0.1-0.1,0.1-0.2,0.2-0.3c0.1-0.3,0.3-0.4,0.4-0.7c0.1-0.2,0.3-0.4,0.4-0.6c0-0.1,0.1-0.1,0.1-0.1
		c1.9-3.1,3.3-6.6,4-10.1c0.1-0.3,0.1-0.5,0.1-0.7v-0.1l0,0C64.9,34.9,64.8,30.1,63.5,25.3z"/>
	
		<radialGradient id="SVGID_2_" cx="49.4307" cy="22.733" r="58.8752" gradientTransform="matrix(1 0 0 -1 0 70)" gradientUnits="userSpaceOnUse">
		<stop  offset="8.182920e-03" style="stop-color:#ABE1FA"/>
		<stop  offset="1.407325e-02" style="stop-color:#9CDCF9"/>
		<stop  offset="3.913981e-02" style="stop-color:#5CCCF5"/>
		<stop  offset="6.391656e-02" style="stop-color:#00BFF3"/>
		<stop  offset="8.793743e-02" style="stop-color:#00B7F1"/>
		<stop  offset="0.111" style="stop-color:#00B2F0"/>
		<stop  offset="0.1326" style="stop-color:#00AFEF"/>
		<stop  offset="0.1514" style="stop-color:#00AEEF"/>
		<stop  offset="0.7185" style="stop-color:#007DB4"/>
		<stop  offset="1" style="stop-color:#44C8F5"/>
	</radialGradient>
	<path class="st2" d="M5,26.6c2.4-7.4,7.9-13.8,15.4-17.5c1.1-0.4,2.3-0.8,3.4-1.1c12.3-3.3,25.7,4.1,29.1,16.8
		c2.1,7.6,0.1,15.3-4.4,21c-0.6,0.7-0.9,1.6-0.6,2.6c0.4,1.4,1.9,2.3,3.4,1.9c0.6-0.2,1.1-0.5,1.4-0.9l0,0c5.2-6.9,7.2-16,4.8-24.9
		C53.3,9,37.4-0.2,21.9,3.9c-5.4,1.4-10.1,4.4-13.6,8.2c-2.9,3.1-5,6.7-6.3,10.6c-0.4,1.3-0.8,2.5-1.1,3.8C0.8,26.6,5,26.6,5,26.6z"
		/>
</g>
</svg>
