<?xml version="1.0" encoding="utf-8"?>
<!-- Generator: Adobe Illustrator 20.1.0, SVG Export Plug-In . SVG Version: 6.00 Build 0)  -->
<svg version="1.1" id="Layer_1" xmlns="http://www.w3.org/2000/svg" xmlns:xlink="http://www.w3.org/1999/xlink" x="0px" y="0px"
	 viewBox="0 0 64.6 68.1" style="enable-background:new 0 0 64.6 68.1;" xml:space="preserve">
<style type="text/css">
	.st0{fill:#CC2327;}
</style>
<title>logo</title>
<g>
	<path class="st0" d="M24.7,40.3c2.4-6.4,3.1-9.1,3.7-12.3c0.3-1.6,0-2-0.5-1.8c-0.5,0.2-0.8,0.9-1,1.3l-6.8,14l-3.7,10.4
		c-0.4,1.2-1,3.1-2.3,3.5c-1.8,0.5-3.6-2.5-4.5-3.7L15,37.9c2-9.2,1-9.9,0.3-9.6c-0.3,0.1-0.9,0.6-1.1,0.9C3.1,39.2,5.1,38.6,3,39.3
		c-0.7,0.2-1.4-0.2-1.5-1.2c-0.3-2.4-0.6-4.8-0.4-5.3c0.2-0.6,0-0.5,2.9-4.2c0.2-0.2,0.6-0.8,0.9-0.9c0.2-0.1,0.6,0,0.6,0.3
		C5.6,28.1,5.2,29,4,31L4.1,31l4.1-3.6c0.4-0.4,5.5-5,7.1-5.3c1-0.3,1.4,0.3,2,0.9l1.5,1.5c0.5,0.5,0.8,0.8,1,1.4
		c0.4,1.4-0.4,6.4-0.4,8.1l0.1,0.1l4.7-8.5c1.1-1.9,3.7-6.2,5.4-6.7c0.9-0.3,3.3-0.2,3.9,2c0.9,3.1-1.7,10.7-2.6,13.9l0.1,0.1
		c3.8-6,7.3-12.1,11.4-18.1c0.4-0.6,1-1.8,1.7-2c1.1-0.3,3.7,1.9,4,2.7c0.3,0.8-0.6,2.7-0.9,3.5l-4.1,9.9c-1.2,2.9-2.9,7.8-1.9,11
		c0.3,0.8,1.1,1.9,2.1,1.6c1.2-0.4,3.9-3.2,7.9-10.5l0.7,1.5c-0.1,3.2-7,13.1-10.6,14.2c-2.8,0.8-4.5-1.5-5.2-4
		c-1.5-5,1.9-13,3.7-17.7l-0.1-0.1c-5.3,8.2-7,10.8-11.1,21.2c-0.4,1-1.7,4-2.7,4.3c-1.6,0.5-3.1-2.4-3.5-3.6C22,47.6,22.6,46,23,45
		L24.7,40.3z"/>
	<path class="st0" d="M63.6,33.8c-1.2,2.9-3.7,7.8-6.9,8.8c-2.5,0.8-4.5-1.8-5.1-3.9C50,33.6,53.7,27,56.2,26.2
		c0.7-0.2,1.9-0.3,2.2,0.6c0.6,2.1-2.4,7.1-3.8,8.9c0.2,1.8,1.1,2.6,3,2c2.2-0.7,3.7-3.6,5.1-5.3L63.6,33.8z M56,23.4
		c-0.5-1.7,1-3.8,2.7-4.3c0.8-0.2,1.6,0.1,1.8,0.9c0.5,1.7-0.4,4.2-2.2,4.8C57.2,25,56.3,24.4,56,23.4z"/>
</g>
</svg>
