<?xml version="1.0" encoding="utf-8"?>
<!-- Generator: Adobe Illustrator 20.1.0, SVG Export Plug-In . SVG Version: 6.00 Build 0)  -->
<svg version="1.1" id="Layer_1" xmlns="http://www.w3.org/2000/svg" xmlns:xlink="http://www.w3.org/1999/xlink" x="0px" y="0px"
	 viewBox="0 0 64.6 68.1" style="enable-background:new 0 0 64.6 68.1;" xml:space="preserve">
<style type="text/css">
	.st0{fill:#111111;}
</style>
<title>logo</title>
<polygon class="st0" points="28.9,9.4 31.7,7.8 55,20.1 63.1,16 32.5,0 13.3,10 34.8,21.3 31.6,22.9 10.2,11.7 1.8,15.9 32.6,32.3 
	52.1,21.7 "/>
<polygon class="st0" points="0,38.3 23.2,51.1 23.2,54.7 0,42.1 0,50.8 31.5,68.1 31.5,46.8 8.4,34.1 8.4,30.5 31.5,42.9 31.5,34.2 
	0,17 "/>
<polygon class="st0" points="64.6,26 64.6,17 33.2,34.2 33.2,55.5 56.6,42.6 56.6,46.4 33.2,59.3 33.2,68.1 64.6,50.8 64.6,29.6 
	41.5,42.1 41.5,38.5 "/>
</svg>
