<?xml version="1.0" encoding="utf-8"?>
<!-- Generator: Adobe Illustrator 20.1.0, SVG Export Plug-In . SVG Version: 6.00 Build 0)  -->
<svg version="1.1" id="Layer_1" xmlns="http://www.w3.org/2000/svg" xmlns:xlink="http://www.w3.org/1999/xlink" x="0px" y="0px"
	 viewBox="0 0 64.6 68.1" style="enable-background:new 0 0 64.6 68.1;" xml:space="preserve">
<style type="text/css">
	.st0{fill:#5C8FCB;}
</style>
<title>logo</title>
<path class="st0" d="M61,16.3c-2.1,0.9-4.4,1.6-6.8,1.9c2.4-1.5,4.3-3.8,5.2-6.5c-2.3,1.3-4.8,2.3-7.5,2.9c-2.1-2.3-5.2-3.7-8.6-3.7
	c-6.5,0-11.8,5.3-11.8,11.8c0,0.9,0.1,1.8,0.3,2.7C22.1,24.7,13.4,20,7.6,12.9c-1,1.7-1.6,3.8-1.6,5.9c0,4.1,2.1,7.7,5.2,9.8
	c-1.9-0.1-3.7-0.6-5.3-1.5c0,0,0,0.1,0,0.1c0,5.7,4.1,10.5,9.4,11.5c-1,0.3-2,0.4-3.1,0.4c-0.8,0-1.5-0.1-2.2-0.2
	c1.5,4.7,5.8,8.1,11,8.2c-4,3.2-9.1,5-14.6,5c-0.9,0-1.9-0.1-2.8-0.2c5.2,3.3,11.4,5.3,18,5.3c21.6,0,33.5-17.9,33.5-33.5
	c0-0.5,0-1,0-1.5C57.4,20.7,59.4,18.6,61,16.3z"/>
</svg>
