<?xml version="1.0" encoding="utf-8"?>
<!-- Generator: Adobe Illustrator 20.1.0, SVG Export Plug-In . SVG Version: 6.00 Build 0)  -->
<svg version="1.1" id="Layer_1" xmlns="http://www.w3.org/2000/svg" xmlns:xlink="http://www.w3.org/1999/xlink" x="0px" y="0px"
	 viewBox="0 0 64.6 68.1" style="enable-background:new 0 0 64.6 68.1;" xml:space="preserve">
<style type="text/css">
	.st0{fill:#D0A03A;}
	.st1{fill:#282828;}
</style>
<title>logo</title>
<path class="st0" d="M62.3,48.1l-10.9-8.2c-0.2-0.2-0.5-0.2-0.6,0c-0.2,0.2-0.3,0.4-0.2,0.5l3.1,13.5c0.1,0.2,0.2,0.4,0.5,0.4h0.2
	c0.2,0,0.3-0.2,0.4-0.3l1.6-3.7l2.7,4.2c0.3,0.5,1.1,0.7,1.6,0.4c0.5-0.3,0.7-1.1,0.4-1.6l-2.6-4.1l3.7-0.2c0.2,0,0.4-0.2,0.5-0.4
	C62.6,48.5,62.5,48.3,62.3,48.1L62.3,48.1z"/>
<g>
	<polygon class="st1" points="55.2,31.7 50.1,22.4 50.2,22.5 42.2,9.3 42.2,9.4 38.9,9 36.9,16.6 33.3,14.9 33.6,9.7 22.3,9.3 
		21.3,14.2 21.3,14.3 17.4,14.9 2,29.4 6.8,48.2 8.2,49.6 10.3,50 24.7,42 26.2,42.3 29.9,45.2 29.3,45.8 32.5,47 34,45.5 37.8,50 
		40.9,50.7 47.6,48.4 49.9,44.9 47.1,47.5 41,48.4 37.9,46.1 35.6,38.2 32.1,42.6 27.6,39.1 24.5,38.6 10.1,46.5 9.8,46.5 9.5,46.2 
		5.1,31.1 18.7,18.1 23.8,16.7 25.5,12.8 30.2,12.8 29.3,16.8 39.2,21.5 41,14.5 48.1,24.7 48.1,24.7 54,33.3 53.8,36 53.1,37.5 
		54.5,35.9 55.2,31.7 	"/>
	<polygon class="st1" points="43.7,52.3 37.9,51.7 40.5,59 41.3,59.3 42.1,59.1 43.3,57 41.8,58.6 41.2,58.4 40.5,54.7 43,55.7 
		43.7,52.3 	"/>
</g>
</svg>
