<?xml version="1.0" encoding="utf-8"?>
<!-- Generator: Adobe Illustrator 20.1.0, SVG Export Plug-In . SVG Version: 6.00 Build 0)  -->
<svg version="1.1" id="Layer_1" xmlns="http://www.w3.org/2000/svg" xmlns:xlink="http://www.w3.org/1999/xlink" x="0px" y="0px"
	 viewBox="0 0 64.6 68.1" style="enable-background:new 0 0 64.6 68.1;" xml:space="preserve">
<style type="text/css">
	.st0{fill:#E53A3E;}
	.st1{fill:#F4F5F5;}
</style>
<circle class="st0" cx="32.2" cy="34" r="32.2"/>
<title>logo</title>
<g>
	<path class="st1" d="M55.3,17.5c-1.8,0-3.4,0-5.1,0c-7.5-7.4-16.5-9.9-26.4-6.3C13.5,15,9,23.2,8,31.9c3.1,0,6.3,0,9.6,0
		c-1-3-1.9-5.8-2.9-8.8c1.8,0,3.7,0,5.8,0c1.6,5.4,3.3,11,5.1,16.9c1.4-4.2,2.5-8.1,3.5-12.3c0.4,0.3,0.8,0.5,0.9,0.7
		c0.7,1.8,0.7,3.8,1.7,5.6c0.3,0.5,0.3,1.4,0,2c-1.3,3-1.9,6.2-2.9,9.3c-0.1,0.3-0.4,0.6-0.7,1c-1.9,0-3.7,0-5.9,0
		c-1.3-3.1-2-6.6-3.2-10c-4.9,0-10,0-15,0c-1-3.7,0.4-10.7,3.4-16.1c2.9-5.1,7.1-9.2,12.4-11.7c6.4-3.1,12.9-3.7,19.4-1.9
		C46.8,8.8,49.1,10.5,55.3,17.5z"/>
	<path class="st1" d="M13.7,55.5c2.6,0,4.8,0,7,0c4.3,2.1,8.9,3.3,13.8,2.9c3.5-0.3,6.8-1.4,9.8-3.1c2.5-1.4,5.1-3,6.7-5.4
		c1.6-2.6,3.6-5,4.4-8.1c0.5-1.8,1.3-3.5,1.2-5.5c-3,0-5.9,0-8.7,0c-1.1,3.3-2.2,6.7-3.4,10.1c-1.9,0-3.8,0-5.7,0
		c-0.2-0.2-0.5-0.4-0.6-0.6c-1.1-3.4-2.3-6.9-3.2-10.4c-1-4-2.7-7.9-3.1-12.2c1.5,0,2.8,0,4,0c0.2,0.2,0.6,0.4,0.6,0.7
		c0.6,3.3,1.9,6.4,2.6,9.7c0.5,2.2,1.3,4.3,2,6.6c1.8-5.8,3.5-11.4,5.2-17c2,0,3.9,0,5.9,0c-1,2.9-1.9,5.8-3,8.9
		c3.8,0.2,7.6,0,11.5,0.1c0.2,11.4-4.4,20.2-13.9,26.3c-3.3,2.1-7.1,3.2-11.1,3.8c-5.8,0.8-5.7,0.2-11.5-0.8
		C20.4,60.6,17,58.3,13.7,55.5z"/>
</g>
</svg>
