<?xml version="1.0" standalone="no"?>
<!DOCTYPE svg PUBLIC "-//W3C//DTD SVG 20010904//EN"
 "http://www.w3.org/TR/2001/REC-SVG-20010904/DTD/svg10.dtd">
<svg version="1.0" xmlns="http://www.w3.org/2000/svg"
 width="16.000000pt" height="16.000000pt" viewBox="0 0 16.000000 16.000000"
 preserveAspectRatio="xMidYMid meet">
<metadata>
Created by potrace 1.11, written by Peter Selinger 2001-2013
</metadata>
<g transform="translate(0.000000,16.000000) scale(0.002286,-0.002286)"
fill="#000000" stroke="none">
<path d="M2843 4671 c-1 -922 -3 -1701 -7 -1732 -10 -95 -17 -131 -38 -204
-60 -204 -182 -345 -348 -400 -30 -9 -64 -21 -76 -25 -24 -9 -245 -6 -289 4
-104 25 -212 89 -293 176 -97 104 -144 211 -147 341 -6 183 40 296 174 429 85
86 150 127 213 137 128 21 290 -16 341 -77 l23 -27 0 781 -1 780 -45 9 c-59
11 -385 14 -475 5 -226 -24 -402 -75 -590 -169 -85 -43 -222 -125 -275 -166
-151 -115 -366 -329 -469 -468 -83 -110 -150 -220 -197 -322 -19 -43 -39 -87
-44 -98 -22 -48 -63 -178 -85 -270 -76 -321 -77 -680 -4 -980 26 -106 94 -294
136 -376 18 -36 33 -69 33 -73 0 -4 17 -33 38 -64 21 -32 41 -65 44 -73 4 -9
47 -70 96 -135 166 -219 333 -372 561 -513 254 -157 579 -263 881 -287 85 -6
320 -7 370 -1 25 4 70 9 100 12 30 3 62 8 70 10 8 2 29 7 46 9 59 11 220 55
309 86 249 87 511 250 665 413 16 18 53 57 81 87 268 286 438 678 495 1140 18
148 20 389 20 1990 l-1 1725 -656 1 -656 2 0 -1677z"/>
<path d="M4944 4905 c-7 -5 -24 -35 -37 -65 -14 -30 -40 -89 -60 -130 -19 -41
-66 -142 -105 -225 -38 -82 -97 -208 -131 -279 -33 -70 -61 -130 -61 -132 0
-1 -21 -47 -46 -101 -70 -148 -107 -228 -158 -338 -26 -55 -53 -113 -60 -129
-16 -33 -14 -41 47 -211 19 -55 53 -152 75 -215 22 -63 94 -270 160 -460 66
-190 127 -365 135 -390 9 -25 48 -137 87 -250 39 -113 78 -225 86 -250 8 -25
19 -54 24 -65 5 -11 38 -105 74 -210 35 -104 98 -287 139 -405 l75 -215 826
-3 c454 -1 826 0 826 2 0 5 -227 549 -255 611 -8 17 -44 102 -81 190 -37 88
-100 238 -140 333 -41 96 -74 176 -74 178 0 2 -11 27 -24 56 -13 29 -65 152
-116 273 -50 121 -98 234 -105 250 -8 17 -62 145 -120 285 -59 140 -115 273
-125 295 -10 22 -23 56 -30 75 -13 39 -39 -19 322 720 64 129 161 330 218 445
56 116 120 245 141 288 22 42 36 78 32 78 -4 1 -350 2 -767 3 -494 1 -764 -2
-772 -9z"/>
</g>
</svg>
