<?xml version="1.0" encoding="utf-8"?>
<!-- Generator: Adobe Illustrator 20.1.0, SVG Export Plug-In . SVG Version: 6.00 Build 0)  -->
<svg version="1.1" id="Layer_1" xmlns="http://www.w3.org/2000/svg" xmlns:xlink="http://www.w3.org/1999/xlink" x="0px" y="0px"
	 viewBox="0 0 99 98.7" style="enable-background:new 0 0 99 98.7;" xml:space="preserve">
<style type="text/css">
	.st0{fill:#FFFFFF;}
</style>
<g>
	<path class="st0" d="M40.2,55.4c0,7.2-3.3,10.9-8.6,10.9c-2.2,0-4.4-0.8-5.9-2.3c-1.6-1.6-2.5-3.3-2.5-5.4c0-2.2,0.6-4,2.2-5.6
		c1.6-1.6,2.3-2.3,4.5-2.3c1.7,0,4,0.6,4,2V30.2c-1.6-0.2-3.3-0.3-4.5-0.3c-7.6,0-13.7,2.8-19.1,8.4c-5.6,5.6-8.1,12.3-8.1,19.9
		c0,7.9,3,14.6,8.4,20.1c5.6,5.4,12.4,8.2,20.5,8.2c4,0,8.1-0.9,12-2.6s6.8-4.2,9.3-7.2c4.4-5.3,6.4-12,6.4-20.4V9.2H40.2V55.4z"/>
	<polygon class="st0" points="81.4,50.6 91.8,29.4 69.9,29.4 60.4,49.7 73.4,87 96.8,87 	"/>
</g>
</svg>
