<?xml version="1.0" encoding="utf-8"?>
<!-- Generator: Adobe Illustrator 20.1.0, SVG Export Plug-In . SVG Version: 6.00 Build 0)  -->
<svg version="1.1" id="Layer_1" xmlns="http://www.w3.org/2000/svg" xmlns:xlink="http://www.w3.org/1999/xlink" x="0px" y="0px"
	 viewBox="0 0 18.2 18.2" style="enable-background:new 0 0 18.2 18.2;" xml:space="preserve">
<style type="text/css">
	.st0{fill:url(#SVGID_1_);}
	.st1{fill:#FFFFFF;}
</style>
<radialGradient id="SVGID_1_" cx="12.3561" cy="88.3495" r="11.7779" gradientTransform="matrix(1 0 0 -1 0 101)" gradientUnits="userSpaceOnUse">
	<stop  offset="0" style="stop-color:#E2288F"/>
	<stop  offset="1" style="stop-color:#E92B6B"/>
</radialGradient>
<circle class="st0" cx="9.1" cy="9.1" r="9"/>
<g>
	<path class="st1" d="M8,10c0,0.8-0.4,1.3-1,1.3c-0.3,0-0.5-0.1-0.7-0.3C6.1,10.8,6,10.6,6,10.3c0-0.3,0.1-0.5,0.3-0.7
		c0.2-0.2,0.3-0.3,0.5-0.3c0.2,0,0.5,0.1,0.5,0.2V7C7.1,7,6.9,7,6.7,7C5.8,7,5.1,7.3,4.5,8c-0.7,0.7-0.9,1.4-0.9,2.3
		c0,0.9,0.3,1.7,1,2.3c0.7,0.6,1.5,1,2.4,1c0.5,0,0.9-0.1,1.4-0.3c0.5-0.2,0.8-0.5,1.1-0.8c0.5-0.6,0.7-1.4,0.7-2.4V4.6H8V10z"/>
	<polygon class="st1" points="12.8,9.4 14,6.9 11.5,6.9 10.4,9.3 11.9,13.7 14.6,13.7 	"/>
</g>
</svg>
