<svg xmlns="http://www.w3.org/2000/svg" style="display: none;">

<style type="text/css">
	.st0{fill:#FF0000;}
</style>

  
  <symbol id="behance" viewBox="0 0 242.7 242.7">
<path class="st0" d="M102.3,137v6.6c0,7.1-5.7,12.8-12.8,12.8h-29v-31h30.2C97.1,125.4,102.3,130.6,102.3,137z M97.5,99.8v-4.9
		c0-5-4-9-9-9h-28v22.9h28C93.5,108.8,97.5,104.8,97.5,99.8z M242.7,0l0.1,243H-0.4L0,0H242.7z M145,85.5h43.3V73.8H145V85.5z
		 M124.5,139c0-18.9-16.7-24.8-16.7-24.8s13.5-3.4,13.5-21.1c0-18.5-12.5-27.2-29.7-27.2c-20.8,0-53.4,0-53.4,0v110.8h50.3
		c0,0,12.7,0,22.1-6.9C119.9,163,124.5,154.2,124.5,139z M170.4,92.8c-39.1,0-41.4,33.2-41.4,45s6.9,38.2,37.7,38.2
		c28.7,0,34.3-13.6,36-18.4c1.7-4.8,1.2-8.8,1.2-8.8h-18.1c0,0,1.5,9.9-17.1,9.9c-18.6,0-17.7-17.4-17.7-17.4h53.4
		C204.3,141.3,210,92.8,170.4,92.8z M169.2,109c-16.4,0-17.7,16.1-17.7,16.1H185C185,125,185.6,109,169.2,109z"/>
  </symbol>
  
  <symbol id="facebook" viewBox="0 0 242.7 242.7">
	<path class="st0" d="M0,0l-0.4,243h243.2L242.7,0H0z M154.2,117.4h-25.8v86.5h-28.3v-86.5H81.2V98h19v-31
		c0-15.6,12.7-28.3,28.3-28.3h27.3v24.6h-19.7c-4.3,0-7.8,3.5-7.8,7.8V98h31.7L154.2,117.4z"/>
  </symbol>

  <symbol id="vimeo" viewBox="0 0 242.7 242.7">
	<path class="st0" d="M0,0l-0.4,243h243.2L242.7,0H0z M185.7,118.8c-5.6,7.8-29.4,46-43.9,59.4c-15.1,13.8-32.2,20.8-45.5,0
		S77,115.4,73.9,104.7c-3.1-10.6-7.5-13.8-12.4-12.4s-11.4,7.9-11.4,7.9l-7.7-10.5c0,0,18.4-18.9,32.9-28.9s26.6-8.6,33.1,8.6
		c6.5,17.3,9.1,52.9,12.1,63.4s12.4,14.7,20.5,0s18.7-33.8,10.7-42.4c-7.9-8.6-20.3,0.7-20.3,0.7s11-42.7,47.8-38.2
		C216.1,57.4,197.6,102,185.7,118.8z"/>
  </symbol>
  
  <symbol id="pinterest" viewBox="0 0 242.7 242.7">
<path class="st0" d="M0,0l-0.4,243h243.2L242.7,0H0z M155.4,148.7c-18.5,9.6-33.5,4.9-37.5,2.9c-3.9-2-7.3-6.7-7.3-6.7
		s-4.6,19.6-8.2,29.7S87,198.5,87,198.5s-3.8-15.3-1.1-32s11.5-52.7,11.5-52.7s-5.3-10.6-0.9-21.1c4.4-10.5,12-15.3,22-11.5
		c10,3.8,5.2,18.1,4.1,21.6c-1.1,3.5-8,21.4-5.9,27.6c2.1,6.2,16.8,19.4,34.6-4.9c17.8-24.3,7.9-50.4-7-60
		c-10.7-6.8-36.5-14.3-55.4,7c-23.4,26.4-2.7,49.2-2.7,49.2l-5.5,12.7c0,0-22.2-4.4-20.2-36.9s32.8-53,61.6-52.8
		s48.6,15.6,57.5,38.6C188.7,106.2,173.9,139.2,155.4,148.7z"/>
  </symbol>

  <symbol id="twitter" viewBox="0 0 242.7 242.7">
<path class="st0" d="M0,0l-0.4,243h243.2L242.7,0H0z M186.2,84.8c-4.1,3.6-8.7,6.7-8.7,6.7s3.7,15.5-6.6,38.9
		c-10.2,23.4-32.2,41.6-55.6,45.5c-23.4,4-35.8,1.6-45.3-1.1c-9.5-2.7-19.7-9.8-19.7-9.8s16.6,0.4,26.8-3
		c10.2-3.4,16.2-8.5,16.2-8.5s-10.9-0.9-19.6-8.5s-9.1-13.3-9.1-13.3s4.5,1,8.9,1s5.1-0.3,5.1-0.3s-12.3-3.4-19.2-14.6
		c-6.8-11.2-5.1-15.5-5.1-15.5s2.6,2.1,7.1,3.5s7.2,0.4,7.2,0.4s-11.6-6.4-12.5-19.7s3.5-19.6,3.5-19.6s7.9,14.5,28.1,22.7
		s32.3,7.7,32.3,7.7s-6.2-23,17.6-32.9s34,7.7,34,7.7s7.5-2.2,11-4s5.6-4.2,5.6-4.2s-1.2,4.9-4.3,8.9c-3.1,4-7.4,7.9-7.4,7.9
		s4.7-1.2,8.8-2.6c4.1-1.4,6.8-2.4,6.8-2.4S190.4,81.1,186.2,84.8z"/>
  </symbol>
  
  <symbol id="instagram" viewBox="0 0 242.7 242.7">
	<g>
		<path class="st0" d="M172.6,80.9c-1.2-3.1-2.6-5.3-4.9-7.5c-2.3-2.3-4.5-3.7-7.5-4.9c-2.3-0.9-5.8-2-12.2-2.3
			c-6.9-0.3-9-0.4-26.5-0.4s-19.6,0.1-26.5,0.4c-6.4,0.3-9.9,1.4-12.2,2.3c-3.1,1.2-5.3,2.6-7.5,4.9c-2.3,2.3-3.7,4.5-4.9,7.5
			c-0.9,2.3-2,5.8-2.3,12.2c-0.3,6.9-0.4,9-0.4,26.5c0,17.5,0.1,19.6,0.4,26.5c0.3,6.4,1.4,9.9,2.3,12.2c1.2,3.1,2.6,5.3,4.9,7.6
			c2.3,2.3,4.5,3.7,7.5,4.9c2.3,0.9,5.8,2,12.2,2.3c6.9,0.3,9,0.4,26.5,0.4s19.6-0.1,26.5-0.4c6.4-0.3,9.9-1.4,12.2-2.3
			c3.1-1.2,5.3-2.6,7.5-4.9c2.3-2.3,3.7-4.5,4.9-7.6c0.9-2.3,2-5.8,2.3-12.2c0.3-6.9,0.4-9,0.4-26.5c0-17.5-0.1-19.6-0.4-26.5
			C174.6,86.7,173.5,83.2,172.6,80.9z M121.4,153.4c-18.6,0-33.7-15.1-33.7-33.7c0-18.6,15.1-33.7,33.7-33.7
			c18.6,0,33.7,15.1,33.7,33.7C155.1,138.3,140,153.4,121.4,153.4z M156.5,92.5c-4.4,0-7.9-3.5-7.9-7.9c0-4.4,3.5-7.9,7.9-7.9
			c4.4,0,7.9,3.5,7.9,7.9C164.3,88.9,160.8,92.5,156.5,92.5z"/>
		<circle class="st0" cx="121.4" cy="119.6" r="21.9"/>
		<path class="st0" d="M0,0l-0.4,243h243.2L242.7,0H0z M187.1,121.4c0,16.2-0.1,18.5-0.4,25.3c-0.3,7-1.4,11.8-3.1,15.9
			c-1.7,4.3-3.9,8-7.6,11.6c-3.7,3.7-7.3,5.9-11.6,7.6c-4.2,1.6-8.9,2.7-15.9,3.1c-7,0.3-9.2,0.4-27.1,0.4s-20.1-0.1-27.1-0.4
			c-7-0.3-11.8-1.4-15.9-3.1c-4.3-1.7-8-3.9-11.6-7.6c-3.7-3.7-5.9-7.3-7.6-11.6c-1.6-4.2-2.7-9-3.1-15.9c-0.3-7-0.4-9.2-0.4-27.1
			c0-17.8,0.1-20.1,0.4-27.1c0.3-7,1.4-11.8,3.1-15.9c1.7-4.3,3.9-8,7.6-11.6c3.7-3.7,7.3-5.9,11.6-7.6c4.2-1.6,8.9-2.7,15.9-3.1
			c6.7-0.3,9-0.4,24.6-0.4h4.9c15.6,0,17.9,0.1,24.6,0.4c7,0.3,11.8,1.4,15.9,3.1c4.3,1.7,8,3.9,11.6,7.6c3.7,3.7,5.9,7.3,7.6,11.6
			c1.6,4.2,2.7,9,3.1,15.9c0.3,6.8,0.4,9.1,0.4,25.3V121.4z"/>
	</g>
  </symbol>

  <symbol id="linkedin" viewBox="0 0 242.7 242.7">
	<path class="st0" d="M0,0l-0.4,243h243.2L242.7,0H0z M81.6,191.1H53.1V91.7h28.5L81.6,191.1L81.6,191.1z M67.6,80.3
		c-9.5,0-17.3-7.2-17.3-16.1S58,48.2,67.6,48.2s17.3,7.2,17.3,16.1S77.1,80.3,67.6,80.3z M192.6,191.1h-29.2v-58.9
		c0-0.1,0.4-9.5-4.9-15.1c-2.6-2.8-6.3-4.2-10.8-4.2c-11.4,0-17.2,8.2-19.6,13.2v65H99.6V91.7h28.5v8.4c9.3-7.6,19.8-11.6,30.3-11.6
		c27,0,34.1,21.1,34.1,32.2L192.6,191.1L192.6,191.1z"/>
  </symbol>
  
  <symbol id="github" viewBox="0 0 242.7 242.7">
	<g>
		<path class="st0" d="M146.3,61c-7.9-3.4-16.2-5-24.9-5c-8.7,0-17,1.7-24.9,5c-7.5,3.2-14.2,7.7-20.1,13.6
			C70.5,80.6,66,87.3,62.8,94.8c-3.4,7.9-5,16.2-5,24.9c0,8.7,1.7,17,5,24.9c3.2,7.5,7.7,14.2,13.6,20.1s12.6,10.5,20.1,13.6
			c2.6,1,4.8,1.8,6.8,2.4v-11.5c0-6.1,2-10.5,5.9-13c-1-0.2-2.3-0.4-4-0.7c-1.7-0.3-2.7-0.4-3.1-0.4c-2.2-0.4-4.4-1-6.8-1.8
			c-2-0.8-4-1.9-6.2-3.3c-2.4-1.6-4.2-3.1-5.6-4.4c-1.8-1.8-3.3-3.8-4.4-6.2c-1.2-2.4-2.1-5.2-2.7-8.6c-0.8-4.3-1.2-7.9-1.2-10.7
			c0-7.9,2.5-14.4,7.4-19.5c-2.2-5.5-1.9-11.9,0.9-19.2c0.2-0.2,0.4-0.3,0.6-0.3h2.4c0.4,0,1.1,0.1,2.2,0.4c1.1,0.3,1.7,0.4,1.9,0.4
			c1,0.2,2.9,1,5.6,2.4c2,1,4.4,2.5,7.4,4.4c5.9-1.6,11.9-2.4,18.1-2.4c6.9,0,13,0.8,18.4,2.4c3.9-3,7.7-5,11.2-6.2
			c3.6-1.2,5.8-1.7,6.8-1.5h1.8c3,7.3,3.3,13.8,0.9,19.5c4.9,5.1,7.4,11.6,7.4,19.5c0,3.8-0.3,7.3-0.9,10.7c-0.6,2.8-1.6,5.6-3,8.6
			c-1.2,2.4-2.7,4.4-4.4,6.2c-1.8,1.8-3.6,3.3-5.3,4.4c-1.8,1.2-3.9,2.3-6.5,3.3c-2.4,0.8-4.6,1.4-6.8,1.8c-2.2,0.2-4.5,0.5-7.1,0.9
			c4.1,3,6.2,7.4,6.2,13.3v11.2c2.2-0.6,4.1-1.3,5.9-2.1c7.5-3.2,14.2-7.7,20.1-13.6s10.5-12.6,13.6-20.1c3.4-7.9,5-16.2,5-24.9
			c0-8.7-1.7-17-5-24.9c-3.2-7.5-7.7-14.2-13.6-20.1C160.5,68.7,153.8,64.2,146.3,61z"/>
		<path class="st0" d="M0,0l-0.4,243h243.2L242.7,0H0z M175,173.2c-14.8,14.8-32.7,22.2-53.6,22.2c-20.9,0-38.8-7.4-53.6-22.2
			s-22.2-32.7-22.2-53.6c0-20.9,7.4-38.8,22.2-53.6s32.7-22.2,53.6-22.2c20.9,0,38.8,7.4,53.6,22.2s22.2,32.7,22.2,53.6
			C197.2,140.6,189.8,158.4,175,173.2z"/>
	</g>
  </symbol>

  <symbol id="codepen" viewBox="0 0 242.7 242.7">
	<g>
		<polygon class="st0" points="115.7,97.5 115.7,70.9 71.1,100.6 91,114 		"/>
		<polygon class="st0" points="71.1,141 115.7,170.8 115.7,144.2 91,127.7 		"/>
		<polygon class="st0" points="66.5,111.3 66.5,130.4 80.8,120.8 		"/>
		<polygon class="st0" points="171.7,100.6 127.1,70.9 127.1,97.5 151.8,114 		"/>
		<path class="st0" d="M242.7,0H0l-0.4,243h243.2L242.7,0z M187.7,139.8c0,0.3,0,0.5-0.1,0.7c0,0.1,0,0.2,0,0.2
			c0,0.2-0.1,0.3-0.1,0.5c0,0.1-0.1,0.2-0.1,0.3c0,0.1-0.1,0.3-0.1,0.4c0,0.1-0.1,0.2-0.1,0.3c-0.1,0.1-0.1,0.3-0.2,0.4
			c-0.1,0.1-0.1,0.2-0.2,0.3c-0.1,0.1-0.2,0.2-0.2,0.3c-0.1,0.1-0.1,0.2-0.2,0.2c-0.1,0.1-0.2,0.2-0.3,0.3c-0.1,0.1-0.1,0.2-0.2,0.2
			c-0.1,0.1-0.2,0.2-0.3,0.3c-0.1,0.1-0.2,0.1-0.3,0.2c0,0-0.1,0-0.1,0.1L124.6,185c-1,0.6-2.1,1-3.2,1c-1.1,0-2.2-0.3-3.2-1
			l-60.6-40.4c0,0-0.1,0-0.1-0.1c-0.1-0.1-0.2-0.1-0.3-0.2c-0.1-0.1-0.2-0.2-0.3-0.3c-0.1-0.1-0.2-0.1-0.2-0.2
			c-0.1-0.1-0.2-0.2-0.3-0.3c-0.1-0.1-0.1-0.2-0.2-0.2c-0.1-0.1-0.2-0.2-0.2-0.3c-0.1-0.1-0.1-0.2-0.2-0.3c-0.1-0.1-0.1-0.3-0.2-0.4
			c0-0.1-0.1-0.2-0.1-0.3c-0.1-0.1-0.1-0.3-0.1-0.4c0-0.1-0.1-0.2-0.1-0.3c0-0.2-0.1-0.3-0.1-0.5c0-0.1,0-0.2,0-0.2
			c0-0.2-0.1-0.5-0.1-0.7V99.5c0-0.3,0-0.5,0.1-0.7c0-0.1,0-0.2,0-0.2c0-0.2,0.1-0.3,0.1-0.5c0-0.1,0.1-0.2,0.1-0.3
			c0-0.1,0.1-0.3,0.1-0.4c0-0.1,0.1-0.2,0.1-0.3c0.1-0.1,0.1-0.3,0.2-0.4c0.1-0.1,0.1-0.2,0.2-0.3c0.1-0.1,0.2-0.2,0.2-0.3
			c0.1-0.1,0.1-0.2,0.2-0.2c0.1-0.1,0.2-0.2,0.3-0.3c0.1-0.1,0.1-0.2,0.2-0.2c0.1-0.1,0.2-0.2,0.3-0.3c0.1-0.1,0.2-0.1,0.3-0.2
			c0,0,0.1,0,0.1-0.1l60.6-40.4c1.9-1.3,4.4-1.3,6.3,0l60.6,40.4c0,0,0.1,0,0.1,0.1c0.1,0.1,0.2,0.1,0.3,0.2
			c0.1,0.1,0.2,0.2,0.3,0.3c0.1,0.1,0.2,0.1,0.2,0.2c0.1,0.1,0.2,0.2,0.3,0.3c0.1,0.1,0.1,0.2,0.2,0.2c0.1,0.1,0.2,0.2,0.2,0.3
			c0.1,0.1,0.1,0.2,0.2,0.3c0.1,0.1,0.1,0.2,0.2,0.4c0,0.1,0.1,0.2,0.1,0.3c0.1,0.1,0.1,0.3,0.1,0.4c0,0.1,0.1,0.2,0.1,0.3
			c0,0.2,0.1,0.3,0.1,0.5c0,0.1,0,0.2,0,0.2c0,0.2,0.1,0.5,0.1,0.7V139.8z"/>
		<polygon class="st0" points="121.4,107.4 101.3,120.8 121.4,134.3 141.6,120.8 		"/>
		<polygon class="st0" points="176.3,130.4 176.3,111.3 162.1,120.8 		"/>
		<polygon class="st0" points="127.1,144.2 127.1,170.8 171.7,141 151.8,127.7 		"/>
	</g>
  </symbol>
  
  <symbol id="medium" viewBox="0 0 242.7 242.7">
	<path class="st0" d="M0,0l-0.4,243h243.2L242.7,0H0z M100.2,173.6c0,1.7-0.9,2.6-2.1,2.6c-0.4,0-0.9-0.1-1.4-0.4l-36.5-18.9
		c-1.3-0.7-2.3-2.4-2.3-3.9V65.3c0-0.5,0.1-1,0.4-1.3c0.2-0.3,0.6-0.5,1-0.5c0.3,0,0.6,0.1,1,0.3l2.3,1.2l37.2,19.2
		c0.3,0.2,0.5,0.5,0.5,0.9V173.6z M104,135.8V90.8l38.6,64.9L104,135.8z M117.1,105.5l24.8-41.7c0.3-0.4,0.8-0.7,1.2-0.7
		c0,0,0,0,0,0c0.2,0,0.4,0,0.6,0.1L184,84.1c0.5,0.3,0.7,0.9,0.4,1.4L144.8,152L117.1,105.5z M185,173.5c0,2.2-1.6,3.3-3.5,2.2
		L146,157.4l39-65.5V173.5z"/>
  </symbol>
  
</svg>